<svg width="26" height="24" viewBox="0 0 26 24" fill="none" xmlns="http://www.w3.org/2000/svg">
<path d="M23.8123 1L14.4368 7.87499L16.1803 3.82334L23.8123 1Z" fill="#E17726" stroke="#E17726" stroke-width="0.25" stroke-linecap="round" stroke-linejoin="round"/>
<path d="M2.18629 1L11.4783 7.93916L9.81835 3.82333L2.18629 1Z" fill="#E27625" stroke="#E27625" stroke-width="0.25" stroke-linecap="round" stroke-linejoin="round"/>
<path d="M20.4359 16.9409L17.9414 20.7175L23.2829 22.175L24.8131 17.0234L20.4359 16.9409Z" fill="#E27625" stroke="#E27625" stroke-width="0.25" stroke-linecap="round" stroke-linejoin="round"/>
<path d="M1.19482 17.0234L2.71566 22.175L8.04791 20.7175L5.56261 16.9409L1.19482 17.0234Z" fill="#E27625" stroke="#E27625" stroke-width="0.25" stroke-linecap="round" stroke-linejoin="round"/>
<path d="M7.76058 10.561L6.27686 12.7794L11.5627 13.0177L11.3865 7.38022L7.76058 10.561Z" fill="#E27625" stroke="#E27625" stroke-width="0.25" stroke-linecap="round" stroke-linejoin="round"/>
<path d="M18.2391 10.5607L14.5576 7.31573L14.437 13.0174L19.7228 12.7791L18.2391 10.5607Z" fill="#E27625" stroke="#E27625" stroke-width="0.25" stroke-linecap="round" stroke-linejoin="round"/>
<path d="M8.04736 20.7176L11.2467 19.1868L8.49251 17.0601L8.04736 20.7176Z" fill="#E27625" stroke="#E27625" stroke-width="0.25" stroke-linecap="round" stroke-linejoin="round"/>
<path d="M14.7524 19.1868L17.9425 20.7176L17.5066 17.0601L14.7524 19.1868Z" fill="#E27625" stroke="#E27625" stroke-width="0.25" stroke-linecap="round" stroke-linejoin="round"/>
<path d="M17.9425 20.7177L14.7524 19.1869L15.0121 21.2402L14.9842 22.111L17.9425 20.7177Z" fill="#D5BFB2" stroke="#D5BFB2" stroke-width="0.25" stroke-linecap="round" stroke-linejoin="round"/>
<path d="M8.04736 20.7177L11.0149 22.111L10.9963 21.2402L11.2467 19.1869L8.04736 20.7177Z" fill="#D5BFB2" stroke="#D5BFB2" stroke-width="0.25" stroke-linecap="round" stroke-linejoin="round"/>
<path d="M11.0712 15.7034L8.41895 14.9335L10.2922 14.0809L11.0712 15.7034Z" fill="#233447" stroke="#233447" stroke-width="0.25" stroke-linecap="round" stroke-linejoin="round"/>
<path d="M14.9292 15.7034L15.7082 14.0809L17.5907 14.9335L14.9292 15.7034Z" fill="#233447" stroke="#233447" stroke-width="0.25" stroke-linecap="round" stroke-linejoin="round"/>
<path d="M8.04825 20.7175L8.51195 16.9409L5.56299 17.0234L8.04825 20.7175Z" fill="#CC6228" stroke="#CC6228" stroke-width="0.25" stroke-linecap="round" stroke-linejoin="round"/>
<path d="M17.4873 16.9409L17.9417 20.7175L20.4363 17.0234L17.4873 16.9409Z" fill="#CC6228" stroke="#CC6228" stroke-width="0.25" stroke-linecap="round" stroke-linejoin="round"/>
<path d="M19.7228 12.779L14.437 13.0174L14.9285 15.7032L15.7075 14.0807L17.59 14.9332L19.7228 12.779Z" fill="#CC6228" stroke="#CC6228" stroke-width="0.25" stroke-linecap="round" stroke-linejoin="round"/>
<path d="M8.41901 14.9332L10.2922 14.0807L11.0712 15.7032L11.5627 13.0174L6.27686 12.779L8.41901 14.9332Z" fill="#CC6228" stroke="#CC6228" stroke-width="0.25" stroke-linecap="round" stroke-linejoin="round"/>
<path d="M6.27686 12.779L8.49322 17.0599L8.41898 14.9332L6.27686 12.779Z" fill="#E27525" stroke="#E27525" stroke-width="0.25" stroke-linecap="round" stroke-linejoin="round"/>
<path d="M17.5908 14.9332L17.5073 17.0599L19.7237 12.779L17.5908 14.9332Z" fill="#E27525" stroke="#E27525" stroke-width="0.25" stroke-linecap="round" stroke-linejoin="round"/>
<path d="M11.5623 13.0176L11.0708 15.7035L11.6921 18.8751L11.8312 14.6951L11.5623 13.0176Z" fill="#E27525" stroke="#E27525" stroke-width="0.25" stroke-linecap="round" stroke-linejoin="round"/>
<path d="M14.4369 13.0176L14.1772 14.686L14.3071 18.8751L14.9284 15.7035L14.4369 13.0176Z" fill="#E27525" stroke="#E27525" stroke-width="0.25" stroke-linecap="round" stroke-linejoin="round"/>
<path d="M14.9284 15.7034L14.3071 18.875L14.7523 19.1867L17.5065 17.0601L17.5899 14.9334L14.9284 15.7034Z" fill="#F5841F" stroke="#F5841F" stroke-width="0.25" stroke-linecap="round" stroke-linejoin="round"/>
<path d="M8.41895 14.9334L8.49318 17.0601L11.2473 19.1867L11.6925 18.875L11.0712 15.7034L8.41895 14.9334Z" fill="#F5841F" stroke="#F5841F" stroke-width="0.25" stroke-linecap="round" stroke-linejoin="round"/>
<path d="M14.9839 22.111L15.0117 21.2402L14.7706 21.0385H11.2282L10.9963 21.2402L11.0149 22.111L8.04736 20.7177L9.08598 21.561L11.1911 23.0002H14.7984L16.9127 21.561L17.9421 20.7177L14.9839 22.111Z" fill="#C0AC9D" stroke="#C0AC9D" stroke-width="0.25" stroke-linecap="round" stroke-linejoin="round"/>
<path d="M14.7528 19.1867L14.3077 18.8751H11.6926L11.2475 19.1867L10.9971 21.2401L11.2289 21.0384H14.7714L15.0125 21.2401L14.7528 19.1867Z" fill="#161616" stroke="#161616" stroke-width="0.25" stroke-linecap="round" stroke-linejoin="round"/>
<path d="M24.2112 8.32414L24.9995 4.52916L23.8124 1L14.7523 7.64586L18.2391 10.5608L23.1633 11.9817L24.2483 10.7259L23.7754 10.3866L24.5265 9.70836L23.9516 9.26834L24.7027 8.69999L24.2112 8.32414Z" fill="#763E1A" stroke="#763E1A" stroke-width="0.25" stroke-linecap="round" stroke-linejoin="round"/>
<path d="M1 4.52916L1.79752 8.32414L1.28748 8.69999L2.0479 9.26834L1.47295 9.70836L2.22409 10.3866L1.75115 10.7259L2.83614 11.9817L7.76036 10.5608L11.2471 7.64586L2.187 1L1 4.52916Z" fill="#763E1A" stroke="#763E1A" stroke-width="0.25" stroke-linecap="round" stroke-linejoin="round"/>
<path d="M23.1641 11.9814L18.2399 10.5606L19.7237 12.779L17.5073 17.0598L20.4377 17.0231H24.8148L23.1641 11.9814Z" fill="#F5841F" stroke="#F5841F" stroke-width="0.25" stroke-linecap="round" stroke-linejoin="round"/>
<path d="M7.76038 10.5606L2.83622 11.9814L1.19482 17.0231H5.56261L8.49298 17.0598L6.27666 12.779L7.76038 10.5606Z" fill="#F5841F" stroke="#F5841F" stroke-width="0.25" stroke-linecap="round" stroke-linejoin="round"/>
<path d="M14.436 13.0177L14.7513 7.646L16.1794 3.82353H9.81787L11.246 7.646L11.5612 13.0177L11.6818 14.7044L11.6911 18.8752H14.3062L14.3155 14.7044L14.436 13.0177Z" fill="#F5841F" stroke="#F5841F" stroke-width="0.25" stroke-linecap="round" stroke-linejoin="round"/>
</svg>
