<svg width="898" height="1000" viewBox="0 0 898 1000" fill="none" xmlns="http://www.w3.org/2000/svg">
    <path d="M363.397 142.54C363.397 94.7512 401.999 55.8726 449.449 55.8726C472.438 55.8726 494.052 64.889 510.3 81.2533C526.548 97.6177 535.501 119.386 535.501 142.54V220.732L590.211 188.908V142.54C590.211 104.664 575.566 69.0599 548.991 42.286C522.407 15.512 487.064 0.771729 449.457 0.771729C371.838 0.771729 308.696 64.3654 308.696 142.54V452.699L535.509 584.598V858.159C535.509 905.948 496.907 944.826 449.457 944.826C426.46 944.826 404.845 935.81 388.597 919.446C372.349 903.081 363.397 881.313 363.397 858.159V779.985L308.687 811.782V858.159C308.687 896.044 323.34 931.648 349.933 958.404C376.517 985.178 411.859 999.918 449.449 999.918C527.068 999.918 590.211 936.325 590.211 858.15V548.036L363.397 416.145V142.54Z" fill="#0CCFAC"/>
    <path d="M827.542 556.498L619.637 435.602L771.863 347.08C780.93 341.791 786.569 331.967 786.569 321.442C786.569 316.277 785.203 311.166 782.613 306.657C778.683 299.798 772.348 294.899 764.77 292.858C757.192 290.808 749.27 291.846 742.468 295.804L506.138 433.233L800.183 604.206C820.088 615.769 834.336 634.477 840.283 656.867C846.231 679.239 843.165 702.596 831.639 722.643C816.334 749.337 787.776 765.924 757.113 765.924C742.08 765.924 727.242 761.921 714.192 754.351L646.9 715.224V778.853L686.886 802.078C708.227 814.475 732.511 821.024 757.121 821.024C807.249 821.024 853.959 793.904 879.018 750.243C881.371 746.151 883.53 741.936 885.442 737.694V737.685C887.354 733.461 889.072 729.104 890.552 724.729C891.301 722.528 891.98 720.327 892.614 718.109C896.403 704.806 898.209 691.042 897.98 677.207C897.795 665.59 896.174 653.947 893.16 642.605C883.424 605.999 860.118 575.418 827.542 556.498Z" fill="#0CCFAC"/>
    <path d="M478.843 142.544C478.843 134.637 475.785 127.2 470.234 121.609C464.683 116.019 457.299 112.939 449.448 112.939C433.235 112.939 420.053 126.224 420.053 142.544V383.19L449.448 400.264L714.089 246.401C727.201 238.795 742.065 234.766 757.08 234.766C787.761 234.766 816.337 251.388 831.642 278.153C839.193 291.287 843.185 306.258 843.185 321.442C843.185 352.281 826.725 381.016 800.229 396.457L732.91 435.611L787.62 467.417L827.633 444.157C870.967 418.874 897.886 371.849 897.886 321.451C897.886 296.585 891.366 272.092 879.021 250.616C853.961 206.865 807.234 179.683 757.062 179.683C732.452 179.683 708.124 186.259 686.721 198.692L478.825 319.57V142.544H478.843Z" fill="#E651F3"/>
    <path d="M18.7855 390.477C20.4949 393.574 22.4335 396.76 24.7244 400.212C30.2756 408.607 36.6638 416.346 43.7129 423.206C51.9956 431.272 61.3093 438.336 71.4071 444.202L279.303 565.098L127.086 653.62C118.019 658.909 112.389 668.733 112.389 679.258C112.389 684.422 113.755 689.534 116.345 694.042C121.579 703.174 131.36 708.854 141.863 708.854C146.982 708.854 152.04 707.487 156.49 704.905L392.785 567.494L98.7665 396.494C78.8439 384.904 64.5959 366.197 58.6571 343.833C52.7358 321.452 55.8198 298.095 67.3274 278.057C82.6504 251.354 111.199 234.767 141.836 234.767C156.886 234.767 171.742 238.779 184.792 246.375L252.049 285.502V221.873L212.116 198.613C190.775 186.216 166.473 179.667 141.836 179.667C91.6997 179.667 44.9994 206.795 19.9662 250.448C1.11869 283.248 -3.90378 321.47 5.82398 358.077C8.83748 369.436 13.1991 380.334 18.7855 390.477Z" fill="#0CCFAC"/>
    <path d="M141.836 291.834C131.35 291.834 121.587 297.505 116.353 306.646C112.423 313.497 111.366 321.466 113.401 329.098C115.428 336.739 120.292 343.128 127.103 347.086L252.057 419.758V351.372L156.489 295.792C152.013 293.201 146.946 291.834 141.836 291.834Z" fill="#E651F3"/>
    <path d="M420.076 858.164C420.076 866.071 423.133 873.508 428.684 879.099C434.236 884.69 441.619 887.769 449.479 887.769C465.683 887.769 478.874 874.484 478.874 858.164V617.536L449.488 600.435L449.426 600.462L184.856 754.325C171.771 761.922 156.906 765.933 141.865 765.933C111.184 765.933 82.5995 749.329 67.2765 722.591C59.7252 709.395 55.7337 694.415 55.7337 679.266C55.7337 648.445 72.2021 619.701 98.7156 604.26L166.008 565.124L111.298 533.301L71.3034 556.551C27.9513 581.843 1.02374 628.869 1.02374 679.266C1.02374 704.114 7.5442 728.607 19.8889 750.11C44.9661 793.861 91.7017 821.034 141.865 821.034C166.484 821.034 190.803 814.467 212.206 802.034L420.076 681.147V858.164V858.164Z" fill="#E651F3"/>
    <path d="M757.121 708.865C767.598 708.865 777.361 703.194 782.604 694.053C786.534 687.202 787.582 679.233 785.556 671.601C783.529 663.96 778.665 657.571 771.863 653.622L646.909 580.976V649.327L742.477 704.898C746.927 707.489 751.993 708.865 757.121 708.865Z" fill="#E651F3"/>
</svg>
